<svg id="visual" viewBox="0 0 900 600" width="900" height="600" xmlns="http://www.w3.org/2000/svg" xmlns:xlink="http://www.w3.org/1999/xlink" version="1.1"><rect x="0" y="0" width="900" height="600" fill="#eaf6f6"></rect><defs><linearGradient id="grad1_0" x1="33.3%" y1="100%" x2="100%" y2="0%"><stop offset="20%" stop-color="#eaf6f6" stop-opacity="1"></stop><stop offset="80%" stop-color="#eaf6f6" stop-opacity="1"></stop></linearGradient></defs><defs><linearGradient id="grad2_0" x1="0%" y1="100%" x2="66.7%" y2="0%"><stop offset="20%" stop-color="#eaf6f6" stop-opacity="1"></stop><stop offset="80%" stop-color="#eaf6f6" stop-opacity="1"></stop></linearGradient></defs><g transform="translate(900, 600)"><path d="M-486.7 0C-481.8 -66.6 -476.8 -133.3 -448.1 -185.6C-419.4 -237.9 -366.9 -276 -321.7 -321.7C-276.6 -367.5 -238.7 -420.9 -186.3 -449.7C-133.9 -478.5 -66.9 -482.6 0 -486.7L0 0Z" fill="#a9dbdb"></path></g><g transform="translate(0, 0)"><path d="M486.7 0C467.7 63.9 448.7 127.8 412.1 170.7C375.4 213.6 321.1 235.5 285 285C248.8 334.4 230.7 411.5 186.3 449.7C141.8 487.9 70.9 487.3 0 486.7L0 0Z" fill="#a9dbdb"></path></g></svg>