<svg id="visual" viewBox="0 0 900 600" width="900" height="600" xmlns="http://www.w3.org/2000/svg" xmlns:xlink="http://www.w3.org/1999/xlink" version="1.1"><rect x="0" y="0" width="900" height="600" fill="#66bfbf"></rect><path d="M483 0L454.5 10C426 20 369 40 332.8 60C296.7 80 281.3 100 278.8 120C276.3 140 286.7 160 340.8 180C395 200 493 220 497 240C501 260 411 280 414.3 300C417.7 320 514.3 340 501.3 360C488.3 380 365.7 400 313.7 420C261.7 440 280.3 460 347.5 480C414.7 500 530.3 520 574.2 540C618 560 590 580 576 590L562 600" fill="none" stroke-linecap="round" stroke-linejoin="miter" stroke="#eaf6f6" stroke-width="99"></path></svg>